<svg width="539" height="264" viewBox="0 0 539 264" fill="none" xmlns="http://www.w3.org/2000/svg">
<path d="M0 28H531C535.418 28 539 31.5817 539 36V256C539 260.418 535.418 264 531 264H7.99998C3.58171 264 0 260.418 0 256V28Z" fill="#A5D2F3"/>
<mask id="mask0" style="mask-type:alpha" maskUnits="userSpaceOnUse" x="17" y="58" width="100" height="100">
<path d="M117 108C117 135.614 94.6142 158 67 158C39.3858 158 17 135.614 17 108C17 80.3858 39.3858 58 67 58C94.6142 58 117 80.3858 117 108Z" fill="#C4C4C4"/>
</mask>
<g mask="url(#mask0)">
<rect x="9.6228" y="58" width="115.164" height="115.164" fill="#FF760C"/>
<rect x="57.5735" y="130.541" width="20.082" height="22.541" fill="#F8BB46"/>
<path d="M77.6555 142.016C69.3549 153.475 60.8089 146.791 57.5735 142.016L61.6526 156.363L67.1207 173.164L73.1631 156.552L77.6555 142.016Z" fill="#EEEEEE"/>
<path d="M42.5912 115.859C40.5191 108.813 44.3843 105.225 46.5759 104.311L48.9667 120.295C45.7935 119.733 43.3399 118.405 42.5912 115.859Z" fill="#F8BB46"/>
<path d="M93.4572 116.679C95.5292 109.633 91.6641 106.044 89.4725 105.131L87.0816 121.115C90.2549 120.552 92.7084 119.225 93.4572 116.679Z" fill="#F8BB46"/>
<path d="M41.6797 111.947C41.6797 107.414 45.1111 103.616 49.6213 103.158V103.158L50.9449 122.11L50.3164 122.055C45.4299 121.629 41.6797 117.539 41.6797 112.634V112.634V111.947Z" fill="#F8BB46"/>
<path d="M94.3228 111.947C94.3228 107.414 90.8913 103.616 86.3811 103.158V103.158L85.0575 122.11L85.6861 122.055C90.5726 121.63 94.3228 117.539 94.3228 112.634V112.634V111.947Z" fill="#F8BB46"/>
<path d="M88.3957 84.4983L90.0932 105.314C90.0932 105.314 90.9486 121.522 82.0303 130.966C78.8228 134.362 74.6931 137.626 68.2387 137.904C62.77 138.14 58.5048 135.296 55.2958 132.438C47.4451 124.868 47.3895 118.35 46.5964 112.253C45.8034 106.155 45.7478 102.16 45.7478 102.16L48.2939 85.7598L79.0598 73.9853L88.3957 84.4983Z" fill="#FFCC80"/>
<path d="M57.5182 141.607L35.8521 151.255L59.0002 173.164H75.0073L98.9668 151.255L77.5475 141.607L67.0037 171.154L57.5182 141.607Z" fill="#2F4FFF"/>
<circle cx="57.9833" cy="109.229" r="1.63934" fill="black"/>
<circle cx="76.426" cy="109.229" r="1.63934" fill="black"/>
<path d="M72.2706 104.007C75.1156 102.433 78.6224 103.533 80.2277 104.384C80.35 104.449 80.4926 104.463 80.6237 104.418C80.9662 104.302 81.0605 103.864 80.7809 103.634C77.2663 100.747 73.6035 102.012 71.7636 103.314C71.5141 103.49 71.5496 103.857 71.8149 104.008C71.9556 104.089 72.1287 104.085 72.2706 104.007Z" fill="black"/>
<path d="M62.5161 104.189C59.8906 102.617 56.5296 103.464 54.9851 104.166C54.872 104.217 54.7438 104.224 54.6277 104.179C54.3098 104.058 54.2418 103.641 54.5185 103.443C57.9294 101 61.3159 102.304 62.9993 103.568C63.2287 103.74 63.1801 104.083 62.9228 104.21C62.7932 104.273 62.6399 104.263 62.5161 104.189Z" fill="black"/>
<path d="M65.9469 105.825L63.4824 112.46C63.2885 112.982 62.7905 113.328 62.2338 113.328H53.4757C52.8612 113.328 52.3264 112.908 52.1813 112.31L50.6062 105.825H65.9469ZM65.9469 105.825L66.4335 104.734C66.6591 104.228 67.1615 103.902 67.7156 103.902V103.902C68.2698 103.902 68.7721 104.228 68.9978 104.734L69.4843 105.825M69.4843 105.825L71.9489 112.46C72.1428 112.982 72.6408 113.328 73.1975 113.328H81.7531C82.3676 113.328 82.9024 112.908 83.0475 112.31L84.6226 105.825H69.4843Z" stroke="black" stroke-width="0.665984"/>
<path d="M65.4846 119.018L64.5039 117.865C64.3568 117.692 64.4797 117.426 64.7069 117.426H70.4743C70.7088 117.426 70.8289 117.707 70.6668 117.877L69.513 119.083C69.3042 119.301 69.0611 119.484 68.7935 119.623L68.7393 119.652C67.9684 120.055 67.049 120.055 66.278 119.652C65.9753 119.494 65.7059 119.278 65.4846 119.018Z" fill="#FE9902"/>
<path d="M49.7792 89.6894C49.4517 93.0429 47.9763 100.416 45.7478 105.117C44.3894 98.7992 44.3895 94.4635 45.7478 89.6894C44.4716 89.0421 44.0192 88.6022 44.0503 87.5703C46.8086 73.584 82.2425 64.0479 84.1521 77.8224L84.2235 78.3371C84.3612 78.6626 84.5354 78.6685 84.5741 78.6698L84.5765 78.6699C92.7242 80.7043 91.6491 96.6119 90.0932 104.311C86.1425 97.5994 83.7074 93.6503 82.3685 84.2295C78.2701 88.9426 62.4915 93.8606 49.7792 89.6894Z" fill="black"/>
<path d="M72.4695 125.843C69.3401 126.797 65.0925 126.359 62.8428 125.921C62.5435 125.863 62.2488 126.046 62.1769 126.343C62.12 126.577 62.2205 126.823 62.4296 126.944C66.5625 129.325 70.6513 128.637 73.1261 127.036C73.3862 126.867 73.4761 126.536 73.3599 126.248C73.2197 125.902 72.8272 125.734 72.4695 125.843Z" fill="#FE9902"/>
</g>
<rect x="131" width="259" height="89" fill="#031B44"/>
<path d="M163.062 40H161.555V34.7422H155.82V40H154.32V28.625H155.82V33.5156H161.555V28.625H163.062V40ZM167.07 40H165.625V31.5469H167.07V40ZM165.508 29.3047C165.508 29.0703 165.578 28.8724 165.719 28.7109C165.865 28.5495 166.078 28.4688 166.359 28.4688C166.641 28.4688 166.854 28.5495 167 28.7109C167.146 28.8724 167.219 29.0703 167.219 29.3047C167.219 29.5391 167.146 29.7344 167 29.8906C166.854 30.0469 166.641 30.125 166.359 30.125C166.078 30.125 165.865 30.0469 165.719 29.8906C165.578 29.7344 165.508 29.5391 165.508 29.3047ZM176.477 34.7109L175.086 36.1562V40H173.586V28.625H175.086V34.25L180.141 28.625H181.953L177.477 33.6484L182.305 40H180.508L176.477 34.7109ZM188.609 40C188.526 39.8333 188.458 39.5365 188.406 39.1094C187.734 39.8073 186.932 40.1562 186 40.1562C185.167 40.1562 184.482 39.9219 183.945 39.4531C183.414 38.9792 183.148 38.3802 183.148 37.6562C183.148 36.776 183.482 36.0938 184.148 35.6094C184.82 35.1198 185.763 34.875 186.977 34.875H188.383V34.2109C188.383 33.7057 188.232 33.3047 187.93 33.0078C187.628 32.7057 187.182 32.5547 186.594 32.5547C186.078 32.5547 185.646 32.6849 185.297 32.9453C184.948 33.2057 184.773 33.5208 184.773 33.8906H183.32C183.32 33.4688 183.469 33.0625 183.766 32.6719C184.068 32.276 184.474 31.9635 184.984 31.7344C185.5 31.5052 186.065 31.3906 186.68 31.3906C187.654 31.3906 188.417 31.6354 188.969 32.125C189.521 32.6094 189.807 33.2786 189.828 34.1328V38.0234C189.828 38.7995 189.927 39.4167 190.125 39.875V40H188.609ZM186.211 38.8984C186.664 38.8984 187.094 38.7812 187.5 38.5469C187.906 38.3125 188.201 38.0078 188.383 37.6328V35.8984H187.25C185.479 35.8984 184.594 36.4167 184.594 37.4531C184.594 37.9062 184.745 38.2604 185.047 38.5156C185.349 38.7708 185.737 38.8984 186.211 38.8984ZM196.18 32.8438C195.961 32.8073 195.724 32.7891 195.469 32.7891C194.521 32.7891 193.878 33.1927 193.539 34V40H192.094V31.5469H193.5L193.523 32.5234C193.997 31.7682 194.669 31.3906 195.539 31.3906C195.82 31.3906 196.034 31.4271 196.18 31.5V32.8438ZM200.867 40.1562C199.721 40.1562 198.789 39.7812 198.07 39.0312C197.352 38.276 196.992 37.2682 196.992 36.0078V35.7422C196.992 34.9036 197.151 34.1562 197.469 33.5C197.792 32.8385 198.24 32.3229 198.812 31.9531C199.391 31.5781 200.016 31.3906 200.688 31.3906C201.786 31.3906 202.641 31.7526 203.25 32.4766C203.859 33.2005 204.164 34.237 204.164 35.5859V36.1875H198.438C198.458 37.0208 198.701 37.6953 199.164 38.2109C199.633 38.7214 200.227 38.9766 200.945 38.9766C201.456 38.9766 201.888 38.8724 202.242 38.6641C202.596 38.4557 202.906 38.1797 203.172 37.8359L204.055 38.5234C203.346 39.612 202.284 40.1562 200.867 40.1562ZM200.688 32.5781C200.104 32.5781 199.615 32.7917 199.219 33.2188C198.823 33.6406 198.578 34.2344 198.484 35H202.719V34.8906C202.677 34.1562 202.479 33.5885 202.125 33.1875C201.771 32.7812 201.292 32.5781 200.688 32.5781ZM207.211 31.5469L207.258 32.6094C207.904 31.7969 208.747 31.3906 209.789 31.3906C211.576 31.3906 212.477 32.3984 212.492 34.4141V40H211.047V34.4062C211.042 33.7969 210.901 33.3464 210.625 33.0547C210.354 32.763 209.93 32.6172 209.352 32.6172C208.883 32.6172 208.471 32.7422 208.117 32.9922C207.763 33.2422 207.487 33.5703 207.289 33.9766V40H205.844V31.5469H207.211ZM214.625 42.2656L213.805 41.7031C214.294 41.0208 214.549 40.3177 214.57 39.5938V38.2891H215.984V39.4219C215.984 39.9479 215.854 40.474 215.594 41C215.339 41.526 215.016 41.9479 214.625 42.2656ZM223.617 40H222.117V28.625H223.617V40ZM226.242 31.8281L225.422 31.2656C225.906 30.5885 226.156 29.875 226.172 29.125V28H227.602V29.0156C227.596 29.5365 227.466 30.0573 227.211 30.5781C226.961 31.0938 226.638 31.5104 226.242 31.8281ZM230.547 31.5469L230.586 32.4844C231.206 31.7552 232.042 31.3906 233.094 31.3906C234.276 31.3906 235.081 31.8438 235.508 32.75C235.789 32.3438 236.154 32.0156 236.602 31.7656C237.055 31.5156 237.589 31.3906 238.203 31.3906C240.057 31.3906 241 32.3724 241.031 34.3359V40H239.586V34.4219C239.586 33.8177 239.448 33.3672 239.172 33.0703C238.896 32.7682 238.432 32.6172 237.781 32.6172C237.245 32.6172 236.799 32.7786 236.445 33.1016C236.091 33.4193 235.885 33.849 235.828 34.3906V40H234.375V34.4609C234.375 33.2318 233.773 32.6172 232.57 32.6172C231.622 32.6172 230.974 33.0208 230.625 33.8281V40H229.18V31.5469H230.547ZM252.109 37.7578C252.109 37.3672 251.961 37.0651 251.664 36.8516C251.372 36.6328 250.859 36.4453 250.125 36.2891C249.396 36.1328 248.815 35.9453 248.383 35.7266C247.956 35.5078 247.638 35.2474 247.43 34.9453C247.227 34.6432 247.125 34.2839 247.125 33.8672C247.125 33.1745 247.417 32.5885 248 32.1094C248.589 31.6302 249.339 31.3906 250.25 31.3906C251.208 31.3906 251.984 31.638 252.578 32.1328C253.177 32.6276 253.477 33.2604 253.477 34.0312H252.023C252.023 33.6354 251.854 33.2943 251.516 33.0078C251.182 32.7214 250.76 32.5781 250.25 32.5781C249.724 32.5781 249.312 32.6927 249.016 32.9219C248.719 33.151 248.57 33.4505 248.57 33.8203C248.57 34.1693 248.708 34.4323 248.984 34.6094C249.26 34.7865 249.758 34.9557 250.477 35.1172C251.201 35.2786 251.786 35.4714 252.234 35.6953C252.682 35.9193 253.013 36.1901 253.227 36.5078C253.445 36.8203 253.555 37.2031 253.555 37.6562C253.555 38.4115 253.253 39.0182 252.648 39.4766C252.044 39.9297 251.26 40.1562 250.297 40.1562C249.62 40.1562 249.021 40.0365 248.5 39.7969C247.979 39.5573 247.57 39.224 247.273 38.7969C246.982 38.3646 246.836 37.8984 246.836 37.3984H248.281C248.307 37.8828 248.5 38.2682 248.859 38.5547C249.224 38.8359 249.703 38.9766 250.297 38.9766C250.844 38.9766 251.281 38.8672 251.609 38.6484C251.943 38.4245 252.109 38.1276 252.109 37.7578ZM257.398 29.5V31.5469H258.977V32.6641H257.398V37.9062C257.398 38.2448 257.469 38.5 257.609 38.6719C257.75 38.8385 257.99 38.9219 258.328 38.9219C258.495 38.9219 258.724 38.8906 259.016 38.8281V40C258.635 40.1042 258.266 40.1562 257.906 40.1562C257.26 40.1562 256.773 39.9609 256.445 39.5703C256.117 39.1797 255.953 38.625 255.953 37.9062V32.6641H254.414V31.5469H255.953V29.5H257.398ZM265.891 39.1641C265.328 39.8255 264.503 40.1562 263.414 40.1562C262.513 40.1562 261.826 39.8958 261.352 39.375C260.883 38.849 260.646 38.0729 260.641 37.0469V31.5469H262.086V37.0078C262.086 38.2891 262.607 38.9297 263.648 38.9297C264.753 38.9297 265.487 38.5182 265.852 37.6953V31.5469H267.297V40H265.922L265.891 39.1641ZM272.891 38.9766C273.406 38.9766 273.857 38.8203 274.242 38.5078C274.628 38.1953 274.841 37.8047 274.883 37.3359H276.25C276.224 37.8203 276.057 38.2812 275.75 38.7188C275.443 39.1562 275.031 39.5052 274.516 39.7656C274.005 40.026 273.464 40.1562 272.891 40.1562C271.74 40.1562 270.823 39.7734 270.141 39.0078C269.464 38.237 269.125 37.1849 269.125 35.8516V35.6094C269.125 34.7865 269.276 34.0547 269.578 33.4141C269.88 32.7734 270.312 32.276 270.875 31.9219C271.443 31.5677 272.112 31.3906 272.883 31.3906C273.831 31.3906 274.617 31.6745 275.242 32.2422C275.872 32.8099 276.208 33.5469 276.25 34.4531H274.883C274.841 33.9062 274.633 33.4583 274.258 33.1094C273.888 32.7552 273.43 32.5781 272.883 32.5781C272.148 32.5781 271.578 32.8438 271.172 33.375C270.771 33.901 270.57 34.6641 270.57 35.6641V35.9375C270.57 36.9115 270.771 37.6615 271.172 38.1875C271.573 38.7135 272.146 38.9766 272.891 38.9766ZM280.234 36.0859L279.328 37.0312V40H277.883V28H279.328V35.2578L280.102 34.3281L282.734 31.5469H284.492L281.203 35.0781L284.875 40H283.18L280.234 36.0859ZM289.57 35.6953C289.57 34.8672 289.732 34.1224 290.055 33.4609C290.383 32.7995 290.836 32.2891 291.414 31.9297C291.997 31.5703 292.661 31.3906 293.406 31.3906C294.557 31.3906 295.487 31.7891 296.195 32.5859C296.909 33.3828 297.266 34.4427 297.266 35.7656V35.8672C297.266 36.6901 297.107 37.4297 296.789 38.0859C296.477 38.737 296.026 39.2448 295.438 39.6094C294.854 39.974 294.182 40.1562 293.422 40.1562C292.276 40.1562 291.346 39.7578 290.633 38.9609C289.924 38.1641 289.57 37.1094 289.57 35.7969V35.6953ZM291.023 35.8672C291.023 36.8047 291.24 37.5573 291.672 38.125C292.109 38.6927 292.693 38.9766 293.422 38.9766C294.156 38.9766 294.74 38.6901 295.172 38.1172C295.604 37.5391 295.82 36.7318 295.82 35.6953C295.82 34.7682 295.599 34.0182 295.156 33.4453C294.719 32.8672 294.135 32.5781 293.406 32.5781C292.693 32.5781 292.117 32.862 291.68 33.4297C291.242 33.9974 291.023 34.8099 291.023 35.8672ZM300.445 31.5469L300.492 32.6094C301.138 31.7969 301.982 31.3906 303.023 31.3906C304.81 31.3906 305.711 32.3984 305.727 34.4141V40H304.281V34.4062C304.276 33.7969 304.135 33.3464 303.859 33.0547C303.589 32.763 303.164 32.6172 302.586 32.6172C302.117 32.6172 301.706 32.7422 301.352 32.9922C300.997 33.2422 300.721 33.5703 300.523 33.9766V40H299.078V31.5469H300.445ZM313.836 29.5V31.5469H315.414V32.6641H313.836V37.9062C313.836 38.2448 313.906 38.5 314.047 38.6719C314.188 38.8385 314.427 38.9219 314.766 38.9219C314.932 38.9219 315.161 38.8906 315.453 38.8281V40C315.073 40.1042 314.703 40.1562 314.344 40.1562C313.698 40.1562 313.211 39.9609 312.883 39.5703C312.555 39.1797 312.391 38.625 312.391 37.9062V32.6641H310.852V31.5469H312.391V29.5H313.836ZM318.555 32.5703C319.195 31.7839 320.029 31.3906 321.055 31.3906C322.841 31.3906 323.742 32.3984 323.758 34.4141V40H322.312V34.4062C322.307 33.7969 322.167 33.3464 321.891 33.0547C321.62 32.763 321.195 32.6172 320.617 32.6172C320.148 32.6172 319.737 32.7422 319.383 32.9922C319.029 33.2422 318.753 33.5703 318.555 33.9766V40H317.109V28H318.555V32.5703ZM327.492 40H326.047V31.5469H327.492V40ZM325.93 29.3047C325.93 29.0703 326 28.8724 326.141 28.7109C326.286 28.5495 326.5 28.4688 326.781 28.4688C327.062 28.4688 327.276 28.5495 327.422 28.7109C327.568 28.8724 327.641 29.0703 327.641 29.3047C327.641 29.5391 327.568 29.7344 327.422 29.8906C327.276 30.0469 327.062 30.125 326.781 30.125C326.5 30.125 326.286 30.0469 326.141 29.8906C326 29.7344 325.93 29.5391 325.93 29.3047ZM334.734 37.7578C334.734 37.3672 334.586 37.0651 334.289 36.8516C333.997 36.6328 333.484 36.4453 332.75 36.2891C332.021 36.1328 331.44 35.9453 331.008 35.7266C330.581 35.5078 330.263 35.2474 330.055 34.9453C329.852 34.6432 329.75 34.2839 329.75 33.8672C329.75 33.1745 330.042 32.5885 330.625 32.1094C331.214 31.6302 331.964 31.3906 332.875 31.3906C333.833 31.3906 334.609 31.638 335.203 32.1328C335.802 32.6276 336.102 33.2604 336.102 34.0312H334.648C334.648 33.6354 334.479 33.2943 334.141 33.0078C333.807 32.7214 333.385 32.5781 332.875 32.5781C332.349 32.5781 331.938 32.6927 331.641 32.9219C331.344 33.151 331.195 33.4505 331.195 33.8203C331.195 34.1693 331.333 34.4323 331.609 34.6094C331.885 34.7865 332.383 34.9557 333.102 35.1172C333.826 35.2786 334.411 35.4714 334.859 35.6953C335.307 35.9193 335.638 36.1901 335.852 36.5078C336.07 36.8203 336.18 37.2031 336.18 37.6562C336.18 38.4115 335.878 39.0182 335.273 39.4766C334.669 39.9297 333.885 40.1562 332.922 40.1562C332.245 40.1562 331.646 40.0365 331.125 39.7969C330.604 39.5573 330.195 39.224 329.898 38.7969C329.607 38.3646 329.461 37.8984 329.461 37.3984H330.906C330.932 37.8828 331.125 38.2682 331.484 38.5547C331.849 38.8359 332.328 38.9766 332.922 38.9766C333.469 38.9766 333.906 38.8672 334.234 38.6484C334.568 38.4245 334.734 38.1276 334.734 37.7578ZM341.648 35.6953C341.648 34.8672 341.81 34.1224 342.133 33.4609C342.461 32.7995 342.914 32.2891 343.492 31.9297C344.076 31.5703 344.74 31.3906 345.484 31.3906C346.635 31.3906 347.565 31.7891 348.273 32.5859C348.987 33.3828 349.344 34.4427 349.344 35.7656V35.8672C349.344 36.6901 349.185 37.4297 348.867 38.0859C348.555 38.737 348.104 39.2448 347.516 39.6094C346.932 39.974 346.26 40.1562 345.5 40.1562C344.354 40.1562 343.424 39.7578 342.711 38.9609C342.003 38.1641 341.648 37.1094 341.648 35.7969V35.6953ZM343.102 35.8672C343.102 36.8047 343.318 37.5573 343.75 38.125C344.188 38.6927 344.771 38.9766 345.5 38.9766C346.234 38.9766 346.818 38.6901 347.25 38.1172C347.682 37.5391 347.898 36.7318 347.898 35.6953C347.898 34.7682 347.677 34.0182 347.234 33.4453C346.797 32.8672 346.214 32.5781 345.484 32.5781C344.771 32.5781 344.195 32.862 343.758 33.4297C343.32 33.9974 343.102 34.8099 343.102 35.8672ZM352.523 31.5469L352.57 32.6094C353.216 31.7969 354.06 31.3906 355.102 31.3906C356.888 31.3906 357.789 32.3984 357.805 34.4141V40H356.359V34.4062C356.354 33.7969 356.214 33.3464 355.938 33.0547C355.667 32.763 355.242 32.6172 354.664 32.6172C354.195 32.6172 353.784 32.7422 353.43 32.9922C353.076 33.2422 352.799 33.5703 352.602 33.9766V40H351.156V31.5469H352.523ZM363.492 40.1562C362.346 40.1562 361.414 39.7812 360.695 39.0312C359.977 38.276 359.617 37.2682 359.617 36.0078V35.7422C359.617 34.9036 359.776 34.1562 360.094 33.5C360.417 32.8385 360.865 32.3229 361.438 31.9531C362.016 31.5781 362.641 31.3906 363.312 31.3906C364.411 31.3906 365.266 31.7526 365.875 32.4766C366.484 33.2005 366.789 34.237 366.789 35.5859V36.1875H361.062C361.083 37.0208 361.326 37.6953 361.789 38.2109C362.258 38.7214 362.852 38.9766 363.57 38.9766C364.081 38.9766 364.513 38.8724 364.867 38.6641C365.221 38.4557 365.531 38.1797 365.797 37.8359L366.68 38.5234C365.971 39.612 364.909 40.1562 363.492 40.1562ZM363.312 32.5781C362.729 32.5781 362.24 32.7917 361.844 33.2188C361.448 33.6406 361.203 34.2344 361.109 35H365.344V34.8906C365.302 34.1562 365.104 33.5885 364.75 33.1875C364.396 32.7812 363.917 32.5781 363.312 32.5781ZM155.664 59H154.219V47H155.664V59ZM159.555 59H158.109V50.5469H159.555V59ZM157.992 48.3047C157.992 48.0703 158.062 47.8724 158.203 47.7109C158.349 47.5495 158.562 47.4688 158.844 47.4688C159.125 47.4688 159.339 47.5495 159.484 47.7109C159.63 47.8724 159.703 48.0703 159.703 48.3047C159.703 48.5391 159.63 48.7344 159.484 48.8906C159.339 49.0469 159.125 49.125 158.844 49.125C158.562 49.125 158.349 49.0469 158.203 48.8906C158.062 48.7344 157.992 48.5391 157.992 48.3047ZM163.242 50.5469L163.289 51.6094C163.935 50.7969 164.779 50.3906 165.82 50.3906C167.607 50.3906 168.508 51.3984 168.523 53.4141V59H167.078V53.4062C167.073 52.7969 166.932 52.3464 166.656 52.0547C166.385 51.763 165.961 51.6172 165.383 51.6172C164.914 51.6172 164.503 51.7422 164.148 51.9922C163.794 52.2422 163.518 52.5703 163.32 52.9766V59H161.875V50.5469H163.242ZM174.211 59.1562C173.065 59.1562 172.133 58.7812 171.414 58.0312C170.695 57.276 170.336 56.2682 170.336 55.0078V54.7422C170.336 53.9036 170.495 53.1562 170.812 52.5C171.135 51.8385 171.583 51.3229 172.156 50.9531C172.734 50.5781 173.359 50.3906 174.031 50.3906C175.13 50.3906 175.984 50.7526 176.594 51.4766C177.203 52.2005 177.508 53.237 177.508 54.5859V55.1875H171.781C171.802 56.0208 172.044 56.6953 172.508 57.2109C172.977 57.7214 173.57 57.9766 174.289 57.9766C174.799 57.9766 175.232 57.8724 175.586 57.6641C175.94 57.4557 176.25 57.1797 176.516 56.8359L177.398 57.5234C176.69 58.612 175.628 59.1562 174.211 59.1562ZM174.031 51.5781C173.448 51.5781 172.958 51.7917 172.562 52.2188C172.167 52.6406 171.922 53.2344 171.828 54H176.062V53.8906C176.021 53.1562 175.823 52.5885 175.469 52.1875C175.115 51.7812 174.635 51.5781 174.031 51.5781ZM182.773 54.6953C182.773 53.8672 182.935 53.1224 183.258 52.4609C183.586 51.7995 184.039 51.2891 184.617 50.9297C185.201 50.5703 185.865 50.3906 186.609 50.3906C187.76 50.3906 188.69 50.7891 189.398 51.5859C190.112 52.3828 190.469 53.4427 190.469 54.7656V54.8672C190.469 55.6901 190.31 56.4297 189.992 57.0859C189.68 57.737 189.229 58.2448 188.641 58.6094C188.057 58.974 187.385 59.1562 186.625 59.1562C185.479 59.1562 184.549 58.7578 183.836 57.9609C183.128 57.1641 182.773 56.1094 182.773 54.7969V54.6953ZM184.227 54.8672C184.227 55.8047 184.443 56.5573 184.875 57.125C185.312 57.6927 185.896 57.9766 186.625 57.9766C187.359 57.9766 187.943 57.6901 188.375 57.1172C188.807 56.5391 189.023 55.7318 189.023 54.6953C189.023 53.7682 188.802 53.0182 188.359 52.4453C187.922 51.8672 187.339 51.5781 186.609 51.5781C185.896 51.5781 185.32 51.862 184.883 52.4297C184.445 52.9974 184.227 53.8099 184.227 54.8672ZM192.992 59V51.6641H191.656V50.5469H192.992V49.6797C192.992 48.7734 193.234 48.0729 193.719 47.5781C194.203 47.0833 194.888 46.8359 195.773 46.8359C196.107 46.8359 196.438 46.8802 196.766 46.9688L196.688 48.1406C196.443 48.0938 196.182 48.0703 195.906 48.0703C195.438 48.0703 195.076 48.2083 194.82 48.4844C194.565 48.7552 194.438 49.1458 194.438 49.6562V50.5469H196.242V51.6641H194.438V59H192.992ZM205.203 57.9766C205.719 57.9766 206.169 57.8203 206.555 57.5078C206.94 57.1953 207.154 56.8047 207.195 56.3359H208.562C208.536 56.8203 208.37 57.2812 208.062 57.7188C207.755 58.1562 207.344 58.5052 206.828 58.7656C206.318 59.026 205.776 59.1562 205.203 59.1562C204.052 59.1562 203.135 58.7734 202.453 58.0078C201.776 57.237 201.438 56.1849 201.438 54.8516V54.6094C201.438 53.7865 201.589 53.0547 201.891 52.4141C202.193 51.7734 202.625 51.276 203.188 50.9219C203.755 50.5677 204.424 50.3906 205.195 50.3906C206.143 50.3906 206.93 50.6745 207.555 51.2422C208.185 51.8099 208.521 52.5469 208.562 53.4531H207.195C207.154 52.9062 206.945 52.4583 206.57 52.1094C206.201 51.7552 205.742 51.5781 205.195 51.5781C204.461 51.5781 203.891 51.8438 203.484 52.375C203.083 52.901 202.883 53.6641 202.883 54.6641V54.9375C202.883 55.9115 203.083 56.6615 203.484 57.1875C203.885 57.7135 204.458 57.9766 205.203 57.9766ZM209.805 54.6953C209.805 53.8672 209.966 53.1224 210.289 52.4609C210.617 51.7995 211.07 51.2891 211.648 50.9297C212.232 50.5703 212.896 50.3906 213.641 50.3906C214.792 50.3906 215.721 50.7891 216.43 51.5859C217.143 52.3828 217.5 53.4427 217.5 54.7656V54.8672C217.5 55.6901 217.341 56.4297 217.023 57.0859C216.711 57.737 216.26 58.2448 215.672 58.6094C215.089 58.974 214.417 59.1562 213.656 59.1562C212.51 59.1562 211.581 58.7578 210.867 57.9609C210.159 57.1641 209.805 56.1094 209.805 54.7969V54.6953ZM211.258 54.8672C211.258 55.8047 211.474 56.5573 211.906 57.125C212.344 57.6927 212.927 57.9766 213.656 57.9766C214.391 57.9766 214.974 57.6901 215.406 57.1172C215.839 56.5391 216.055 55.7318 216.055 54.6953C216.055 53.7682 215.833 53.0182 215.391 52.4453C214.953 51.8672 214.37 51.5781 213.641 51.5781C212.927 51.5781 212.352 51.862 211.914 52.4297C211.477 52.9974 211.258 53.8099 211.258 54.8672ZM218.961 54.7031C218.961 53.4062 219.268 52.3646 219.883 51.5781C220.497 50.7865 221.302 50.3906 222.297 50.3906C223.286 50.3906 224.07 50.7292 224.648 51.4062V47H226.094V59H224.766L224.695 58.0938C224.117 58.8021 223.312 59.1562 222.281 59.1562C221.302 59.1562 220.503 58.7552 219.883 57.9531C219.268 57.151 218.961 56.1042 218.961 54.8125V54.7031ZM220.406 54.8672C220.406 55.8255 220.604 56.5755 221 57.1172C221.396 57.6589 221.943 57.9297 222.641 57.9297C223.557 57.9297 224.227 57.5182 224.648 56.6953V52.8125C224.216 52.0156 223.552 51.6172 222.656 51.6172C221.948 51.6172 221.396 51.8906 221 52.4375C220.604 52.9844 220.406 53.7943 220.406 54.8672ZM231.852 59.1562C230.706 59.1562 229.773 58.7812 229.055 58.0312C228.336 57.276 227.977 56.2682 227.977 55.0078V54.7422C227.977 53.9036 228.135 53.1562 228.453 52.5C228.776 51.8385 229.224 51.3229 229.797 50.9531C230.375 50.5781 231 50.3906 231.672 50.3906C232.771 50.3906 233.625 50.7526 234.234 51.4766C234.844 52.2005 235.148 53.237 235.148 54.5859V55.1875H229.422C229.443 56.0208 229.685 56.6953 230.148 57.2109C230.617 57.7214 231.211 57.9766 231.93 57.9766C232.44 57.9766 232.872 57.8724 233.227 57.6641C233.581 57.4557 233.891 57.1797 234.156 56.8359L235.039 57.5234C234.331 58.612 233.268 59.1562 231.852 59.1562ZM231.672 51.5781C231.089 51.5781 230.599 51.7917 230.203 52.2188C229.807 52.6406 229.562 53.2344 229.469 54H233.703V53.8906C233.661 53.1562 233.464 52.5885 233.109 52.1875C232.755 51.7812 232.276 51.5781 231.672 51.5781ZM236.859 58.2422C236.859 57.9922 236.932 57.7839 237.078 57.6172C237.229 57.4505 237.453 57.3672 237.75 57.3672C238.047 57.3672 238.271 57.4505 238.422 57.6172C238.578 57.7839 238.656 57.9922 238.656 58.2422C238.656 58.4818 238.578 58.6823 238.422 58.8438C238.271 59.0052 238.047 59.0859 237.75 59.0859C237.453 59.0859 237.229 59.0052 237.078 58.8438C236.932 58.6823 236.859 58.4818 236.859 58.2422ZM253.609 55.3906C253.469 56.5938 253.023 57.5234 252.273 58.1797C251.529 58.8307 250.536 59.1562 249.297 59.1562C247.953 59.1562 246.875 58.6745 246.062 57.7109C245.255 56.7474 244.852 55.4583 244.852 53.8438V52.75C244.852 51.6927 245.039 50.763 245.414 49.9609C245.794 49.1589 246.331 48.5443 247.023 48.1172C247.716 47.6849 248.518 47.4688 249.43 47.4688C250.638 47.4688 251.607 47.8073 252.336 48.4844C253.065 49.1562 253.49 50.0885 253.609 51.2812H252.102C251.971 50.375 251.688 49.7188 251.25 49.3125C250.818 48.9062 250.211 48.7031 249.43 48.7031C248.471 48.7031 247.719 49.0573 247.172 49.7656C246.63 50.474 246.359 51.4818 246.359 52.7891V53.8906C246.359 55.125 246.617 56.1068 247.133 56.8359C247.648 57.5651 248.37 57.9297 249.297 57.9297C250.13 57.9297 250.768 57.7422 251.211 57.3672C251.659 56.987 251.956 56.3281 252.102 55.3906H253.609ZM260.656 59C260.573 58.8333 260.505 58.5365 260.453 58.1094C259.781 58.8073 258.979 59.1562 258.047 59.1562C257.214 59.1562 256.529 58.9219 255.992 58.4531C255.461 57.9792 255.195 57.3802 255.195 56.6562C255.195 55.776 255.529 55.0938 256.195 54.6094C256.867 54.1198 257.81 53.875 259.023 53.875H260.43V53.2109C260.43 52.7057 260.279 52.3047 259.977 52.0078C259.674 51.7057 259.229 51.5547 258.641 51.5547C258.125 51.5547 257.693 51.6849 257.344 51.9453C256.995 52.2057 256.82 52.5208 256.82 52.8906H255.367C255.367 52.4688 255.516 52.0625 255.812 51.6719C256.115 51.276 256.521 50.9635 257.031 50.7344C257.547 50.5052 258.112 50.3906 258.727 50.3906C259.701 50.3906 260.464 50.6354 261.016 51.125C261.568 51.6094 261.854 52.2786 261.875 53.1328V57.0234C261.875 57.7995 261.974 58.4167 262.172 58.875V59H260.656ZM258.258 57.8984C258.711 57.8984 259.141 57.7812 259.547 57.5469C259.953 57.3125 260.247 57.0078 260.43 56.6328V54.8984H259.297C257.526 54.8984 256.641 55.4167 256.641 56.4531C256.641 56.9062 256.792 57.2604 257.094 57.5156C257.396 57.7708 257.784 57.8984 258.258 57.8984ZM265.508 50.5469L265.555 51.6094C266.201 50.7969 267.044 50.3906 268.086 50.3906C269.872 50.3906 270.773 51.3984 270.789 53.4141V59H269.344V53.4062C269.339 52.7969 269.198 52.3464 268.922 52.0547C268.651 51.763 268.227 51.6172 267.648 51.6172C267.18 51.6172 266.768 51.7422 266.414 51.9922C266.06 52.2422 265.784 52.5703 265.586 52.9766V59H264.141V50.5469H265.508ZM279.703 56.8828L281.672 50.5469H283.219L279.82 60.3047C279.294 61.7109 278.458 62.4141 277.312 62.4141L277.039 62.3906L276.5 62.2891V61.1172L276.891 61.1484C277.38 61.1484 277.76 61.0495 278.031 60.8516C278.307 60.6536 278.534 60.2917 278.711 59.7656L279.031 58.9062L276.016 50.5469H277.594L279.703 56.8828ZM284.008 54.6953C284.008 53.8672 284.169 53.1224 284.492 52.4609C284.82 51.7995 285.273 51.2891 285.852 50.9297C286.435 50.5703 287.099 50.3906 287.844 50.3906C288.995 50.3906 289.924 50.7891 290.633 51.5859C291.346 52.3828 291.703 53.4427 291.703 54.7656V54.8672C291.703 55.6901 291.544 56.4297 291.227 57.0859C290.914 57.737 290.464 58.2448 289.875 58.6094C289.292 58.974 288.62 59.1562 287.859 59.1562C286.714 59.1562 285.784 58.7578 285.07 57.9609C284.362 57.1641 284.008 56.1094 284.008 54.7969V54.6953ZM285.461 54.8672C285.461 55.8047 285.677 56.5573 286.109 57.125C286.547 57.6927 287.13 57.9766 287.859 57.9766C288.594 57.9766 289.177 57.6901 289.609 57.1172C290.042 56.5391 290.258 55.7318 290.258 54.6953C290.258 53.7682 290.036 53.0182 289.594 52.4453C289.156 51.8672 288.573 51.5781 287.844 51.5781C287.13 51.5781 286.555 51.862 286.117 52.4297C285.68 52.9974 285.461 53.8099 285.461 54.8672ZM298.734 58.1641C298.172 58.8255 297.346 59.1562 296.258 59.1562C295.357 59.1562 294.669 58.8958 294.195 58.375C293.727 57.849 293.49 57.0729 293.484 56.0469V50.5469H294.93V56.0078C294.93 57.2891 295.451 57.9297 296.492 57.9297C297.596 57.9297 298.331 57.5182 298.695 56.6953V50.5469H300.141V59H298.766L298.734 58.1641ZM307.758 51.5703C308.398 50.7839 309.232 50.3906 310.258 50.3906C312.044 50.3906 312.945 51.3984 312.961 53.4141V59H311.516V53.4062C311.51 52.7969 311.37 52.3464 311.094 52.0547C310.823 51.763 310.398 51.6172 309.82 51.6172C309.352 51.6172 308.94 51.7422 308.586 51.9922C308.232 52.2422 307.956 52.5703 307.758 52.9766V59H306.312V47H307.758V51.5703ZM318.633 59.1562C317.487 59.1562 316.555 58.7812 315.836 58.0312C315.117 57.276 314.758 56.2682 314.758 55.0078V54.7422C314.758 53.9036 314.917 53.1562 315.234 52.5C315.557 51.8385 316.005 51.3229 316.578 50.9531C317.156 50.5781 317.781 50.3906 318.453 50.3906C319.552 50.3906 320.406 50.7526 321.016 51.4766C321.625 52.2005 321.93 53.237 321.93 54.5859V55.1875H316.203C316.224 56.0208 316.466 56.6953 316.93 57.2109C317.398 57.7214 317.992 57.9766 318.711 57.9766C319.221 57.9766 319.654 57.8724 320.008 57.6641C320.362 57.4557 320.672 57.1797 320.938 56.8359L321.82 57.5234C321.112 58.612 320.049 59.1562 318.633 59.1562ZM318.453 51.5781C317.87 51.5781 317.38 51.7917 316.984 52.2188C316.589 52.6406 316.344 53.2344 316.25 54H320.484V53.8906C320.443 53.1562 320.245 52.5885 319.891 52.1875C319.536 51.7812 319.057 51.5781 318.453 51.5781ZM325.18 59H323.734V47H325.18V59ZM334.641 54.8672C334.641 56.1536 334.346 57.1901 333.758 57.9766C333.169 58.763 332.372 59.1562 331.367 59.1562C330.341 59.1562 329.534 58.8307 328.945 58.1797V62.25H327.5V50.5469H328.82L328.891 51.4844C329.479 50.7552 330.297 50.3906 331.344 50.3906C332.359 50.3906 333.161 50.7734 333.75 51.5391C334.344 52.3047 334.641 53.3698 334.641 54.7344V54.8672ZM333.195 54.7031C333.195 53.75 332.992 52.9974 332.586 52.4453C332.18 51.8932 331.622 51.6172 330.914 51.6172C330.039 51.6172 329.383 52.0052 328.945 52.7812V56.8203C329.378 57.5911 330.039 57.9766 330.93 57.9766C331.622 57.9766 332.172 57.7031 332.578 57.1562C332.99 56.6042 333.195 55.7865 333.195 54.7031ZM338.102 55.7891H336.797L336.695 47.625H338.211L338.102 55.7891ZM336.641 58.2734C336.641 58.0391 336.711 57.8438 336.852 57.6875C336.997 57.526 337.211 57.4453 337.492 57.4453C337.773 57.4453 337.987 57.526 338.133 57.6875C338.279 57.8438 338.352 58.0391 338.352 58.2734C338.352 58.5078 338.279 58.7031 338.133 58.8594C337.987 59.0104 337.773 59.0859 337.492 59.0859C337.211 59.0859 336.997 59.0104 336.852 58.8594C336.711 58.7031 336.641 58.5078 336.641 58.2734ZM342.305 55.7969C342.315 55.1771 342.385 54.6875 342.516 54.3281C342.646 53.9688 342.911 53.5703 343.312 53.1328L344.336 52.0781C344.773 51.5833 344.992 51.0521 344.992 50.4844C344.992 49.9375 344.849 49.5104 344.562 49.2031C344.276 48.8906 343.859 48.7344 343.312 48.7344C342.781 48.7344 342.354 48.875 342.031 49.1562C341.708 49.4375 341.547 49.8151 341.547 50.2891H340.102C340.112 49.4453 340.411 48.7656 341 48.25C341.594 47.7292 342.365 47.4688 343.312 47.4688C344.297 47.4688 345.062 47.7344 345.609 48.2656C346.161 48.7917 346.438 49.5156 346.438 50.4375C346.438 51.349 346.016 52.2474 345.172 53.1328L344.32 53.9766C343.94 54.3984 343.75 55.0052 343.75 55.7969H342.305ZM342.242 58.2734C342.242 58.0391 342.312 57.8438 342.453 57.6875C342.599 57.526 342.812 57.4453 343.094 57.4453C343.375 57.4453 343.589 57.526 343.734 57.6875C343.88 57.8438 343.953 58.0391 343.953 58.2734C343.953 58.5078 343.88 58.7031 343.734 58.8594C343.589 59.0104 343.375 59.0859 343.094 59.0859C342.812 59.0859 342.599 59.0104 342.453 58.8594C342.312 58.7031 342.242 58.5078 342.242 58.2734Z" fill="white"/>
<rect x="149" y="111" width="256" height="47" fill="#031B44"/>
<rect x="356" y="167" width="49" height="47" fill="#031B44"/>
<path d="M373.547 196.958C373.547 196.614 373.647 196.328 373.848 196.099C374.055 195.869 374.363 195.755 374.771 195.755C375.18 195.755 375.488 195.869 375.695 196.099C375.91 196.328 376.018 196.614 376.018 196.958C376.018 197.287 375.91 197.563 375.695 197.785C375.488 198.007 375.18 198.118 374.771 198.118C374.363 198.118 374.055 198.007 373.848 197.785C373.647 197.563 373.547 197.287 373.547 196.958ZM379.348 196.958C379.348 196.614 379.448 196.328 379.648 196.099C379.856 195.869 380.164 195.755 380.572 195.755C380.98 195.755 381.288 195.869 381.496 196.099C381.711 196.328 381.818 196.614 381.818 196.958C381.818 197.287 381.711 197.563 381.496 197.785C381.288 198.007 380.98 198.118 380.572 198.118C380.164 198.118 379.856 198.007 379.648 197.785C379.448 197.563 379.348 197.287 379.348 196.958ZM385.148 196.958C385.148 196.614 385.249 196.328 385.449 196.099C385.657 195.869 385.965 195.755 386.373 195.755C386.781 195.755 387.089 195.869 387.297 196.099C387.512 196.328 387.619 196.614 387.619 196.958C387.619 197.287 387.512 197.563 387.297 197.785C387.089 198.007 386.781 198.118 386.373 198.118C385.965 198.118 385.657 198.007 385.449 197.785C385.249 197.563 385.148 197.287 385.148 196.958Z" fill="white"/>
<path d="M173.062 140H171.555V134.742H165.82V140H164.32V128.625H165.82V133.516H171.555V128.625H173.062V140ZM177.07 140H175.625V131.547H177.07V140ZM175.508 129.305C175.508 129.07 175.578 128.872 175.719 128.711C175.865 128.549 176.078 128.469 176.359 128.469C176.641 128.469 176.854 128.549 177 128.711C177.146 128.872 177.219 129.07 177.219 129.305C177.219 129.539 177.146 129.734 177 129.891C176.854 130.047 176.641 130.125 176.359 130.125C176.078 130.125 175.865 130.047 175.719 129.891C175.578 129.734 175.508 129.539 175.508 129.305ZM188.352 128.625H189.859V136.68C189.859 137.768 189.531 138.62 188.875 139.234C188.224 139.849 187.354 140.156 186.266 140.156C185.135 140.156 184.255 139.867 183.625 139.289C182.995 138.711 182.68 137.901 182.68 136.859H184.18C184.18 137.51 184.357 138.018 184.711 138.383C185.07 138.747 185.589 138.93 186.266 138.93C186.885 138.93 187.385 138.734 187.766 138.344C188.151 137.953 188.346 137.406 188.352 136.703V128.625ZM191.805 135.695C191.805 134.867 191.966 134.122 192.289 133.461C192.617 132.799 193.07 132.289 193.648 131.93C194.232 131.57 194.896 131.391 195.641 131.391C196.792 131.391 197.721 131.789 198.43 132.586C199.143 133.383 199.5 134.443 199.5 135.766V135.867C199.5 136.69 199.341 137.43 199.023 138.086C198.711 138.737 198.26 139.245 197.672 139.609C197.089 139.974 196.417 140.156 195.656 140.156C194.51 140.156 193.581 139.758 192.867 138.961C192.159 138.164 191.805 137.109 191.805 135.797V135.695ZM193.258 135.867C193.258 136.805 193.474 137.557 193.906 138.125C194.344 138.693 194.927 138.977 195.656 138.977C196.391 138.977 196.974 138.69 197.406 138.117C197.839 137.539 198.055 136.732 198.055 135.695C198.055 134.768 197.833 134.018 197.391 133.445C196.953 132.867 196.37 132.578 195.641 132.578C194.927 132.578 194.352 132.862 193.914 133.43C193.477 133.997 193.258 134.81 193.258 135.867ZM202.758 132.57C203.398 131.784 204.232 131.391 205.258 131.391C207.044 131.391 207.945 132.398 207.961 134.414V140H206.516V134.406C206.51 133.797 206.37 133.346 206.094 133.055C205.823 132.763 205.398 132.617 204.82 132.617C204.352 132.617 203.94 132.742 203.586 132.992C203.232 133.242 202.956 133.57 202.758 133.977V140H201.312V128H202.758V132.57ZM211.492 131.547L211.539 132.609C212.185 131.797 213.029 131.391 214.07 131.391C215.857 131.391 216.758 132.398 216.773 134.414V140H215.328V134.406C215.323 133.797 215.182 133.346 214.906 133.055C214.635 132.763 214.211 132.617 213.633 132.617C213.164 132.617 212.753 132.742 212.398 132.992C212.044 133.242 211.768 133.57 211.57 133.977V140H210.125V131.547H211.492ZM220.57 136.789H219.266L219.164 128.625H220.68L220.57 136.789ZM219.109 139.273C219.109 139.039 219.18 138.844 219.32 138.688C219.466 138.526 219.68 138.445 219.961 138.445C220.242 138.445 220.456 138.526 220.602 138.688C220.747 138.844 220.82 139.039 220.82 139.273C220.82 139.508 220.747 139.703 220.602 139.859C220.456 140.01 220.242 140.086 219.961 140.086C219.68 140.086 219.466 140.01 219.32 139.859C219.18 139.703 219.109 139.508 219.109 139.273ZM230.625 134.93C229.339 134.56 228.401 134.107 227.812 133.57C227.229 133.029 226.938 132.362 226.938 131.57C226.938 130.674 227.294 129.935 228.008 129.352C228.727 128.763 229.659 128.469 230.805 128.469C231.586 128.469 232.281 128.62 232.891 128.922C233.505 129.224 233.979 129.641 234.312 130.172C234.651 130.703 234.82 131.284 234.82 131.914H233.312C233.312 131.227 233.094 130.688 232.656 130.297C232.219 129.901 231.602 129.703 230.805 129.703C230.065 129.703 229.487 129.867 229.07 130.195C228.659 130.518 228.453 130.969 228.453 131.547C228.453 132.01 228.648 132.404 229.039 132.727C229.435 133.044 230.104 133.336 231.047 133.602C231.995 133.867 232.734 134.161 233.266 134.484C233.802 134.802 234.198 135.174 234.453 135.602C234.714 136.029 234.844 136.531 234.844 137.109C234.844 138.031 234.484 138.771 233.766 139.328C233.047 139.88 232.086 140.156 230.883 140.156C230.102 140.156 229.372 140.008 228.695 139.711C228.018 139.409 227.495 138.997 227.125 138.477C226.76 137.956 226.578 137.365 226.578 136.703H228.086C228.086 137.391 228.339 137.935 228.844 138.336C229.354 138.732 230.034 138.93 230.883 138.93C231.674 138.93 232.281 138.768 232.703 138.445C233.125 138.122 233.336 137.682 233.336 137.125C233.336 136.568 233.141 136.138 232.75 135.836C232.359 135.529 231.651 135.227 230.625 134.93ZM241.766 139.164C241.203 139.826 240.378 140.156 239.289 140.156C238.388 140.156 237.701 139.896 237.227 139.375C236.758 138.849 236.521 138.073 236.516 137.047V131.547H237.961V137.008C237.961 138.289 238.482 138.93 239.523 138.93C240.628 138.93 241.362 138.518 241.727 137.695V131.547H243.172V140H241.797L241.766 139.164ZM249.461 132.844C249.242 132.807 249.005 132.789 248.75 132.789C247.802 132.789 247.159 133.193 246.82 134V140H245.375V131.547H246.781L246.805 132.523C247.279 131.768 247.951 131.391 248.82 131.391C249.102 131.391 249.315 131.427 249.461 131.5V132.844ZM254.148 140.156C253.003 140.156 252.07 139.781 251.352 139.031C250.633 138.276 250.273 137.268 250.273 136.008V135.742C250.273 134.904 250.432 134.156 250.75 133.5C251.073 132.839 251.521 132.323 252.094 131.953C252.672 131.578 253.297 131.391 253.969 131.391C255.068 131.391 255.922 131.753 256.531 132.477C257.141 133.201 257.445 134.237 257.445 135.586V136.188H251.719C251.74 137.021 251.982 137.695 252.445 138.211C252.914 138.721 253.508 138.977 254.227 138.977C254.737 138.977 255.169 138.872 255.523 138.664C255.878 138.456 256.188 138.18 256.453 137.836L257.336 138.523C256.628 139.612 255.565 140.156 254.148 140.156ZM253.969 132.578C253.385 132.578 252.896 132.792 252.5 133.219C252.104 133.641 251.859 134.234 251.766 135H256V134.891C255.958 134.156 255.76 133.589 255.406 133.188C255.052 132.781 254.573 132.578 253.969 132.578ZM264.664 140H263.219V128H264.664V140ZM270.492 140.156C269.346 140.156 268.414 139.781 267.695 139.031C266.977 138.276 266.617 137.268 266.617 136.008V135.742C266.617 134.904 266.776 134.156 267.094 133.5C267.417 132.839 267.865 132.323 268.438 131.953C269.016 131.578 269.641 131.391 270.312 131.391C271.411 131.391 272.266 131.753 272.875 132.477C273.484 133.201 273.789 134.237 273.789 135.586V136.188H268.062C268.083 137.021 268.326 137.695 268.789 138.211C269.258 138.721 269.852 138.977 270.57 138.977C271.081 138.977 271.513 138.872 271.867 138.664C272.221 138.456 272.531 138.18 272.797 137.836L273.68 138.523C272.971 139.612 271.909 140.156 270.492 140.156ZM270.312 132.578C269.729 132.578 269.24 132.792 268.844 133.219C268.448 133.641 268.203 134.234 268.109 135H272.344V134.891C272.302 134.156 272.104 133.589 271.75 133.188C271.396 132.781 270.917 132.578 270.312 132.578ZM277.43 129.5V131.547H279.008V132.664H277.43V137.906C277.43 138.245 277.5 138.5 277.641 138.672C277.781 138.839 278.021 138.922 278.359 138.922C278.526 138.922 278.755 138.891 279.047 138.828V140C278.667 140.104 278.297 140.156 277.938 140.156C277.292 140.156 276.805 139.961 276.477 139.57C276.148 139.18 275.984 138.625 275.984 137.906V132.664H274.445V131.547H275.984V129.5H277.43ZM286.031 131.547L286.07 132.484C286.69 131.755 287.526 131.391 288.578 131.391C289.76 131.391 290.565 131.844 290.992 132.75C291.273 132.344 291.638 132.016 292.086 131.766C292.539 131.516 293.073 131.391 293.688 131.391C295.542 131.391 296.484 132.372 296.516 134.336V140H295.07V134.422C295.07 133.818 294.932 133.367 294.656 133.07C294.38 132.768 293.917 132.617 293.266 132.617C292.729 132.617 292.284 132.779 291.93 133.102C291.576 133.419 291.37 133.849 291.312 134.391V140H289.859V134.461C289.859 133.232 289.258 132.617 288.055 132.617C287.107 132.617 286.458 133.021 286.109 133.828V140H284.664V131.547H286.031ZM302.211 140.156C301.065 140.156 300.133 139.781 299.414 139.031C298.695 138.276 298.336 137.268 298.336 136.008V135.742C298.336 134.904 298.495 134.156 298.812 133.5C299.135 132.839 299.583 132.323 300.156 131.953C300.734 131.578 301.359 131.391 302.031 131.391C303.13 131.391 303.984 131.753 304.594 132.477C305.203 133.201 305.508 134.237 305.508 135.586V136.188H299.781C299.802 137.021 300.044 137.695 300.508 138.211C300.977 138.721 301.57 138.977 302.289 138.977C302.799 138.977 303.232 138.872 303.586 138.664C303.94 138.456 304.25 138.18 304.516 137.836L305.398 138.523C304.69 139.612 303.628 140.156 302.211 140.156ZM302.031 132.578C301.448 132.578 300.958 132.792 300.562 133.219C300.167 133.641 299.922 134.234 299.828 135H304.062V134.891C304.021 134.156 303.823 133.589 303.469 133.188C303.115 132.781 302.635 132.578 302.031 132.578ZM312.602 132.57C313.242 131.784 314.076 131.391 315.102 131.391C316.888 131.391 317.789 132.398 317.805 134.414V140H316.359V134.406C316.354 133.797 316.214 133.346 315.938 133.055C315.667 132.763 315.242 132.617 314.664 132.617C314.195 132.617 313.784 132.742 313.43 132.992C313.076 133.242 312.799 133.57 312.602 133.977V140H311.156V128H312.602V132.57ZM325.188 140C325.104 139.833 325.036 139.536 324.984 139.109C324.312 139.807 323.51 140.156 322.578 140.156C321.745 140.156 321.06 139.922 320.523 139.453C319.992 138.979 319.727 138.38 319.727 137.656C319.727 136.776 320.06 136.094 320.727 135.609C321.398 135.12 322.341 134.875 323.555 134.875H324.961V134.211C324.961 133.706 324.81 133.305 324.508 133.008C324.206 132.706 323.76 132.555 323.172 132.555C322.656 132.555 322.224 132.685 321.875 132.945C321.526 133.206 321.352 133.521 321.352 133.891H319.898C319.898 133.469 320.047 133.062 320.344 132.672C320.646 132.276 321.052 131.964 321.562 131.734C322.078 131.505 322.643 131.391 323.258 131.391C324.232 131.391 324.995 131.635 325.547 132.125C326.099 132.609 326.385 133.279 326.406 134.133V138.023C326.406 138.799 326.505 139.417 326.703 139.875V140H325.188ZM322.789 138.898C323.242 138.898 323.672 138.781 324.078 138.547C324.484 138.312 324.779 138.008 324.961 137.633V135.898H323.828C322.057 135.898 321.172 136.417 321.172 137.453C321.172 137.906 321.323 138.26 321.625 138.516C321.927 138.771 322.315 138.898 322.789 138.898ZM331.336 138.039L333.43 131.547H334.906L331.875 140H330.773L327.711 131.547H329.188L331.336 138.039ZM339.695 140.156C338.549 140.156 337.617 139.781 336.898 139.031C336.18 138.276 335.82 137.268 335.82 136.008V135.742C335.82 134.904 335.979 134.156 336.297 133.5C336.62 132.839 337.068 132.323 337.641 131.953C338.219 131.578 338.844 131.391 339.516 131.391C340.615 131.391 341.469 131.753 342.078 132.477C342.688 133.201 342.992 134.237 342.992 135.586V136.188H337.266C337.286 137.021 337.529 137.695 337.992 138.211C338.461 138.721 339.055 138.977 339.773 138.977C340.284 138.977 340.716 138.872 341.07 138.664C341.424 138.456 341.734 138.18 342 137.836L342.883 138.523C342.174 139.612 341.112 140.156 339.695 140.156ZM339.516 132.578C338.932 132.578 338.443 132.792 338.047 133.219C337.651 133.641 337.406 134.234 337.312 135H341.547V134.891C341.505 134.156 341.307 133.589 340.953 133.188C340.599 132.781 340.12 132.578 339.516 132.578ZM353.859 140C353.776 139.833 353.708 139.536 353.656 139.109C352.984 139.807 352.182 140.156 351.25 140.156C350.417 140.156 349.732 139.922 349.195 139.453C348.664 138.979 348.398 138.38 348.398 137.656C348.398 136.776 348.732 136.094 349.398 135.609C350.07 135.12 351.013 134.875 352.227 134.875H353.633V134.211C353.633 133.706 353.482 133.305 353.18 133.008C352.878 132.706 352.432 132.555 351.844 132.555C351.328 132.555 350.896 132.685 350.547 132.945C350.198 133.206 350.023 133.521 350.023 133.891H348.57C348.57 133.469 348.719 133.062 349.016 132.672C349.318 132.276 349.724 131.964 350.234 131.734C350.75 131.505 351.315 131.391 351.93 131.391C352.904 131.391 353.667 131.635 354.219 132.125C354.771 132.609 355.057 133.279 355.078 134.133V138.023C355.078 138.799 355.177 139.417 355.375 139.875V140H353.859ZM351.461 138.898C351.914 138.898 352.344 138.781 352.75 138.547C353.156 138.312 353.451 138.008 353.633 137.633V135.898H352.5C350.729 135.898 349.844 136.417 349.844 137.453C349.844 137.906 349.995 138.26 350.297 138.516C350.599 138.771 350.987 138.898 351.461 138.898ZM362.883 140H361.438V128H362.883V140ZM364.82 135.695C364.82 134.867 364.982 134.122 365.305 133.461C365.633 132.799 366.086 132.289 366.664 131.93C367.247 131.57 367.911 131.391 368.656 131.391C369.807 131.391 370.737 131.789 371.445 132.586C372.159 133.383 372.516 134.443 372.516 135.766V135.867C372.516 136.69 372.357 137.43 372.039 138.086C371.727 138.737 371.276 139.245 370.688 139.609C370.104 139.974 369.432 140.156 368.672 140.156C367.526 140.156 366.596 139.758 365.883 138.961C365.174 138.164 364.82 137.109 364.82 135.797V135.695ZM366.273 135.867C366.273 136.805 366.49 137.557 366.922 138.125C367.359 138.693 367.943 138.977 368.672 138.977C369.406 138.977 369.99 138.69 370.422 138.117C370.854 137.539 371.07 136.732 371.07 135.695C371.07 134.768 370.849 134.018 370.406 133.445C369.969 132.867 369.385 132.578 368.656 132.578C367.943 132.578 367.367 132.862 366.93 133.43C366.492 133.997 366.273 134.81 366.273 135.867ZM373.945 135.695C373.945 134.867 374.107 134.122 374.43 133.461C374.758 132.799 375.211 132.289 375.789 131.93C376.372 131.57 377.036 131.391 377.781 131.391C378.932 131.391 379.862 131.789 380.57 132.586C381.284 133.383 381.641 134.443 381.641 135.766V135.867C381.641 136.69 381.482 137.43 381.164 138.086C380.852 138.737 380.401 139.245 379.812 139.609C379.229 139.974 378.557 140.156 377.797 140.156C376.651 140.156 375.721 139.758 375.008 138.961C374.299 138.164 373.945 137.109 373.945 135.797V135.695ZM375.398 135.867C375.398 136.805 375.615 137.557 376.047 138.125C376.484 138.693 377.068 138.977 377.797 138.977C378.531 138.977 379.115 138.69 379.547 138.117C379.979 137.539 380.195 136.732 380.195 135.695C380.195 134.768 379.974 134.018 379.531 133.445C379.094 132.867 378.51 132.578 377.781 132.578C377.068 132.578 376.492 132.862 376.055 133.43C375.617 133.997 375.398 134.81 375.398 135.867ZM385.812 136.086L384.906 137.031V140H383.461V128H384.906V135.258L385.68 134.328L388.312 131.547H390.07L386.781 135.078L390.453 140H388.758L385.812 136.086Z" fill="white"/>
<mask id="mask1" style="mask-type:alpha" maskUnits="userSpaceOnUse" x="420" y="140" width="100" height="100">
<path d="M520 190C520 217.614 497.614 240 470 240C442.386 240 420 217.614 420 190C420 162.386 442.386 140 470 140C497.614 140 520 162.386 520 190Z" fill="#C4C4C4"/>
</mask>
<g mask="url(#mask1)">
<rect x="412.213" y="140" width="115.164" height="115.164" fill="#FCD35B"/>
<path d="M496.844 184.672C496.844 207.307 482.244 234.262 469.795 234.262C457.346 234.262 442.746 207.307 442.746 184.672C442.746 162.038 457.346 153.934 469.795 153.934C482.244 153.934 496.844 162.038 496.844 184.672Z" fill="#1D2553"/>
<path d="M446.961 191.476C446.679 198.191 450.9 200.701 452.84 201.117L451.214 186.311C448.774 187.403 447.063 189.05 446.961 191.476Z" fill="#E1A989"/>
<path d="M492.35 191.897C492.632 198.612 487.592 201.122 485.651 201.537L488.238 186.721C490.678 187.813 492.248 189.471 492.35 191.897Z" fill="#E1A989"/>
<path d="M459.959 222.582L432.705 233.033L458.935 255.369H481.066L507.295 233.033L479.221 222.582H459.959Z" fill="#8ADB55"/>
<path d="M460.196 213.77C460.684 213.77 478.999 213.77 478.999 213.77C479.571 223.731 479.093 229.84 476.91 241.639H462.077C459.81 231.094 459.709 213.77 460.196 213.77Z" fill="#E1A989"/>
<path d="M488.238 186.721L452.582 172.172C450.779 176.762 450.465 185.287 450.738 188.975C451.176 197.617 452.547 202.507 454.597 206.718C455.505 208.584 456.711 210.286 458.026 211.892C460.64 215.085 462.564 217.058 466.024 218.086C467.946 218.657 470.002 218.736 471.965 218.327C472.378 218.241 472.778 218.139 473.175 218.016C476.71 216.922 479.67 214.386 481.775 211.343C482.756 209.925 483.59 208.418 484.48 206.522C485.533 204.28 486.257 201.897 486.745 199.469C487.751 194.472 488.177 191.282 488.238 186.721Z" fill="#F1CAB5"/>
<circle cx="460.574" cy="190.82" r="1.63934" fill="black"/>
<circle cx="478.402" cy="190.82" r="1.63934" fill="black"/>
<path d="M474.367 186.482C477.02 185.327 480.035 186.597 481.385 187.485C481.488 187.553 481.613 187.578 481.733 187.549C482.047 187.475 482.167 187.095 481.939 186.868C479.067 184.015 475.716 184.827 473.977 185.826C473.741 185.961 473.741 186.289 473.964 186.445C474.082 186.528 474.235 186.539 474.367 186.482Z" fill="black"/>
<path d="M457.577 187.12C459.986 185.496 463.215 186.128 464.714 186.715C464.824 186.758 464.946 186.758 465.054 186.71C465.349 186.579 465.392 186.18 465.12 186.006C461.762 183.864 458.619 185.273 457.087 186.556C456.879 186.731 456.942 187.054 457.192 187.16C457.318 187.214 457.463 187.196 457.577 187.12Z" fill="black"/>
<path d="M467.126 201.017L466.683 200.648C466.351 200.372 466.548 199.836 466.982 199.836H472.199C472.646 199.836 472.835 200.4 472.477 200.664L471.898 201.093C471.597 201.315 471.267 201.494 470.915 201.624L470.841 201.651C469.997 201.963 469.068 201.963 468.224 201.651C467.824 201.503 467.453 201.289 467.126 201.017Z" fill="#E1A989"/>
<path d="M473.643 206.647C470.897 207.545 467.233 207.136 465.229 206.709C464.921 206.644 464.613 206.835 464.546 207.143C464.498 207.363 464.588 207.592 464.777 207.714C468.477 210.102 472.137 209.404 474.345 207.794C474.572 207.629 474.65 207.331 474.554 207.066C474.423 206.702 474.011 206.527 473.643 206.647Z" fill="#E1A989"/>
</g>
</svg>
